<svg width="31" height="31" viewBox="0 0 31 31" fill="none" xmlns="http://www.w3.org/2000/svg">
<path d="M23.25 16.7889H16.7917V23.2472C16.7917 23.5898 16.6556 23.9183 16.4134 24.1606C16.1711 24.4028 15.8426 24.5389 15.5 24.5389C15.1574 24.5389 14.8289 24.4028 14.5867 24.1606C14.3444 23.9183 14.2083 23.5898 14.2083 23.2472V16.7889H7.75001C7.40744 16.7889 7.0789 16.6528 6.83666 16.4106C6.59443 16.1683 6.45834 15.8398 6.45834 15.4972C6.45834 15.1547 6.59443 14.8261 6.83666 14.5839C7.0789 14.3417 7.40744 14.2056 7.75001 14.2056H14.2083V7.74723C14.2083 7.40466 14.3444 7.07612 14.5867 6.83389C14.8289 6.59165 15.1574 6.45557 15.5 6.45557C15.8426 6.45557 16.1711 6.59165 16.4134 6.83389C16.6556 7.07612 16.7917 7.40466 16.7917 7.74723V14.2056H23.25C23.5926 14.2056 23.9211 14.3417 24.1634 14.5839C24.4056 14.8261 24.5417 15.1547 24.5417 15.4972C24.5417 15.8398 24.4056 16.1683 24.1634 16.4106C23.9211 16.6528 23.5926 16.7889 23.25 16.7889Z" fill="#5669FF"/>
</svg>
