<svg width="19" height="19" viewBox="0 0 19 19" fill="none" xmlns="http://www.w3.org/2000/svg">
<path d="M8.73715 2.66236C8.35689 2.66236 8.04828 2.36136 8.04828 1.99048V1.31861C8.04828 0.947729 8.35689 0.646729 8.73715 0.646729C9.1174 0.646729 9.42601 0.947729 9.42601 1.31861V1.99048C9.42601 2.36136 9.1174 2.66236 8.73715 2.66236Z" fill="white"/>
<path d="M14.7486 8.52628C14.3683 8.52628 14.0597 8.22527 14.0597 7.8544C14.0597 5.12389 11.7864 2.79718 8.99239 2.66818C6.1949 2.54221 3.70085 4.6435 3.43736 7.35822C3.42152 7.52048 3.41359 7.6871 3.41359 7.8544C3.41359 8.22527 3.10498 8.52628 2.72473 8.52628C2.34447 8.52628 2.03586 8.22527 2.03586 7.8544C2.03586 7.64477 2.04585 7.43515 2.06582 7.23157C2.39751 3.81306 5.53772 1.16452 9.05749 1.32611C12.5755 1.48837 15.4374 4.41708 15.4374 7.8544C15.4374 8.22561 15.1288 8.52628 14.7486 8.52628Z" fill="white"/>
<path d="M16.0403 13.109C15.8705 13.109 15.7 13.0479 15.5667 12.9253C14.6092 12.0411 14.0598 10.7961 14.0598 9.50977C14.0598 9.13889 14.3684 8.83789 14.7487 8.83789C15.1289 8.83789 15.4375 9.13889 15.4375 9.50977C15.4375 10.4286 15.8298 11.3181 16.5139 11.9494C16.7901 12.2043 16.8022 12.6296 16.5407 12.8994C16.4054 13.0385 16.2228 13.109 16.0403 13.109Z" fill="white"/>
<path d="M1.4333 13.109C1.25041 13.109 1.0682 13.0388 0.932839 12.899C0.671414 12.6296 0.683469 12.2043 0.959705 11.9494C1.64375 11.3181 2.03606 10.4289 2.03606 9.50977C2.03606 9.13889 2.34467 8.83789 2.72493 8.83789C3.10518 8.83789 3.4138 9.13889 3.4138 9.50977C3.4138 10.7967 2.86442 12.0417 1.9069 12.9253C1.77326 13.0479 1.60311 13.109 1.4333 13.109Z" fill="white"/>
<path d="M8.73718 18.1155C6.87035 18.1155 5.29285 16.5769 5.29285 14.7561C5.29285 14.3852 5.60146 14.0842 5.98171 14.0842C6.36197 14.0842 6.67058 14.3852 6.67058 14.7561C6.67058 15.8486 7.61708 16.7717 8.73718 16.7717C9.85728 16.7717 10.8038 15.8486 10.8038 14.7561C10.8038 14.3852 11.1124 14.0842 11.4927 14.0842C11.8729 14.0842 12.1815 14.3852 12.1815 14.7561C12.1815 16.5769 10.604 18.1155 8.73718 18.1155Z" fill="white"/>
<path d="M2.38021 15.428C1.54083 15.428 0.794096 14.9274 0.477562 14.1527C0.160683 13.3771 0.349777 12.512 0.959424 11.949C1.23566 11.6937 1.67137 11.7054 1.93348 11.9749C2.19491 12.2443 2.1832 12.6696 1.90696 12.9249C1.60524 13.2037 1.71614 13.5548 1.75748 13.6556C1.79846 13.7557 1.96483 14.0842 2.38021 14.0842C2.76047 14.0842 3.06908 14.3852 3.06908 14.7561C3.06908 15.127 2.76081 15.428 2.38021 15.428Z" fill="white"/>
<path d="M15.0937 15.4283C14.7134 15.4283 14.4048 15.1273 14.4048 14.7565C14.4048 14.3856 14.7134 14.0846 15.0937 14.0846C15.5094 14.0846 15.6761 13.7547 15.7174 13.6536C15.7584 13.5531 15.869 13.2034 15.5672 12.9249C15.291 12.6696 15.279 12.2447 15.5404 11.9749C15.8021 11.7055 16.2379 11.6937 16.5144 11.9487C17.1241 12.5117 17.3135 13.3761 16.9973 14.1504C16.6805 14.9268 15.933 15.4283 15.0937 15.4283Z" fill="white"/>
<path d="M2.72473 10.1814C2.34447 10.1814 2.03586 9.88045 2.03586 9.50957V7.85474C2.03586 7.48386 2.34447 7.18286 2.72473 7.18286C3.10499 7.18286 3.4136 7.48386 3.4136 7.85474V9.50957C3.4136 9.88045 3.10533 10.1814 2.72473 10.1814Z" fill="white"/>
<path d="M14.7487 10.1814C14.3684 10.1814 14.0598 9.88045 14.0598 9.50957V7.85474C14.0598 7.48386 14.3684 7.18286 14.7487 7.18286C15.1289 7.18286 15.4375 7.48386 15.4375 7.85474V9.50957C15.4375 9.88045 15.1289 10.1814 14.7487 10.1814Z" fill="white"/>
<path d="M15.0937 15.428H2.38064C2.00038 15.428 1.69177 15.127 1.69177 14.7561C1.69177 14.3852 2.00038 14.0842 2.38064 14.0842H15.0933C15.4736 14.0842 15.7822 14.3852 15.7822 14.7561C15.7822 15.127 15.4739 15.428 15.0937 15.428Z" fill="white"/>
<circle cx="14.6895" cy="3.88199" r="3.42909" fill="#E45D32" stroke="white" stroke-width="0.905797"/>
</svg>
