<svg width="74" height="74" viewBox="0 0 74 74" fill="none" xmlns="http://www.w3.org/2000/svg">
<path d="M37 64.75C31.5116 64.75 26.1464 63.1225 21.5829 60.0733C17.0195 57.0241 13.4627 52.6901 11.3624 47.6195C9.26202 42.5488 8.71248 36.9692 9.78322 31.5863C10.854 26.2033 13.4969 21.2587 17.3778 17.3778C21.2587 13.4969 26.2033 10.854 31.5863 9.78322C36.9692 8.71248 42.5488 9.26202 47.6195 11.3624C52.6901 13.4627 57.0241 17.0195 60.0733 21.5829C63.1225 26.1464 64.75 31.5116 64.75 37C64.75 44.3598 61.8264 51.4181 56.6222 56.6222C51.4181 61.8264 44.3598 64.75 37 64.75ZM37 13.875C32.4263 13.875 27.9553 15.2313 24.1525 17.7723C20.3496 20.3133 17.3856 23.9249 15.6353 28.1505C13.885 32.376 13.4271 37.0257 14.3194 41.5115C15.2116 45.9973 17.4141 50.1178 20.6482 53.3519C23.8823 56.5859 28.0027 58.7884 32.4886 59.6807C36.9744 60.573 41.624 60.115 45.8496 58.3647C50.0751 56.6145 53.6867 53.6505 56.2278 49.8476C58.7688 46.0447 60.125 41.5737 60.125 37C60.125 30.8669 57.6886 24.9849 53.3519 20.6482C49.0151 16.3114 43.1331 13.875 37 13.875Z" fill="#2051E5" fill-opacity="0.17"/>
<path d="M46.25 39.3124H37C36.3892 39.3044 35.8056 39.0582 35.3736 38.6263C34.9417 38.1943 34.6955 37.6107 34.6875 36.9999V21.5833C34.6875 20.9699 34.9311 20.3817 35.3648 19.9481C35.7985 19.5144 36.3867 19.2708 37 19.2708C37.6133 19.2708 38.2015 19.5144 38.6352 19.9481C39.0689 20.3817 39.3125 20.9699 39.3125 21.5833V34.6874H46.25C46.8633 34.6874 47.4515 34.9311 47.8852 35.3647C48.3189 35.7984 48.5625 36.3866 48.5625 36.9999C48.5625 37.6132 48.3189 38.2014 47.8852 38.6351C47.4515 39.0688 46.8633 39.3124 46.25 39.3124Z" fill="#2051E5" fill-opacity="0.17"/>
</svg>
