<svg width="72" height="72" viewBox="0 0 72 72" fill="none" xmlns="http://www.w3.org/2000/svg">
<path d="M36 6.75C24.8203 6.75 15.75 15.383 15.75 26.0156C15.75 38.25 29.25 57.638 34.207 64.3345C34.4128 64.6172 34.6825 64.8472 34.9941 65.0058C35.3057 65.1644 35.6504 65.2471 36 65.2471C36.3496 65.2471 36.6943 65.1644 37.0059 65.0058C37.3175 64.8472 37.5872 64.6172 37.793 64.3345C42.75 57.6408 56.25 38.2598 56.25 26.0156C56.25 15.383 47.1797 6.75 36 6.75Z" stroke="#2051E5" stroke-opacity="0.17" stroke-width="3.95238" stroke-linecap="round" stroke-linejoin="round"/>
<path d="M36 33.75C39.7279 33.75 42.75 30.7279 42.75 27C42.75 23.2721 39.7279 20.25 36 20.25C32.2721 20.25 29.25 23.2721 29.25 27C29.25 30.7279 32.2721 33.75 36 33.75Z" stroke="#2051E5" stroke-opacity="0.17" stroke-width="3.95238" stroke-linecap="round" stroke-linejoin="round"/>
</svg>
