<svg width="22" height="24" viewBox="0 0 22 24" fill="none" xmlns="http://www.w3.org/2000/svg">
<path fill-rule="evenodd" clip-rule="evenodd" d="M10.7604 0.046875C11.0774 0.046875 11.3815 0.172819 11.6057 0.397C11.8299 0.621181 11.9558 0.925235 11.9558 1.24228V13.1963C11.9558 13.5133 11.8299 13.8174 11.6057 14.0416C11.3815 14.2657 11.0774 14.3917 10.7604 14.3917C10.4434 14.3917 10.1393 14.2657 9.91512 14.0416C9.69094 13.8174 9.565 13.5133 9.565 13.1963V1.24228C9.565 0.925235 9.69094 0.621181 9.91512 0.397C10.1393 0.172819 10.4434 0.046875 10.7604 0.046875ZM7.01401 4.31445C7.17253 4.58901 7.21548 4.91529 7.13343 5.22152C7.05138 5.52775 6.85105 5.78885 6.5765 5.94737C4.98112 6.86829 3.7342 8.28991 3.02916 9.99175C2.32411 11.6936 2.20034 13.5805 2.67704 15.3599C3.15373 17.1392 4.20426 18.7115 5.66567 19.833C7.12708 20.9544 8.9177 21.5622 10.7598 21.5622C12.6019 21.5622 14.3925 20.9544 15.8539 19.833C17.3153 18.7115 18.3659 17.1392 18.8426 15.3599C19.3193 13.5805 19.1955 11.6936 18.4904 9.99175C17.7854 8.28991 16.5385 6.86829 14.9431 5.94737C14.6788 5.78385 14.4886 5.52383 14.4127 5.22242C14.3369 4.92102 14.3815 4.60193 14.5369 4.33282C14.6924 4.0637 14.9466 3.86571 15.2456 3.78083C15.5445 3.69595 15.8648 3.73085 16.1385 3.87813C18.1894 5.0624 19.7923 6.8903 20.6985 9.07835C21.6046 11.2664 21.7636 13.6923 21.1505 15.9799C20.5375 18.2674 19.1868 20.2888 17.3079 21.7305C15.429 23.1722 13.1269 23.9536 10.7586 23.9536C8.39033 23.9536 6.08822 23.1722 4.20932 21.7305C2.33042 20.2888 0.979712 18.2674 0.366684 15.9799C-0.246345 13.6923 -0.0874396 11.2664 0.818756 9.07835C1.72495 6.8903 3.32779 5.0624 5.37871 3.87813C5.51463 3.79941 5.66474 3.74825 5.82046 3.72757C5.97617 3.70689 6.13443 3.71711 6.28619 3.75763C6.43795 3.79815 6.58024 3.86818 6.70492 3.96373C6.8296 4.05927 6.93422 4.17845 7.01282 4.31445H7.01401Z" fill="#FCFCFC"/>
</svg>
