<svg width="124" height="124" viewBox="0 0 124 124" fill="none" xmlns="http://www.w3.org/2000/svg">
<path d="M105.007 21.4209C101.455 20.7101 97.9508 19.78 94.5138 18.6361C92.8759 18.1194 91.0418 17.5718 88.9286 16.9466C81.0394 14.6223 73.3632 11.6285 65.9834 7.99792C64.7456 7.38613 63.3833 7.06787 62.0025 7.06787C60.6217 7.06787 59.2595 7.38613 58.0216 7.99792C50.6397 11.6277 42.9618 14.6214 35.0713 16.9466C32.9581 17.5718 31.1239 18.1349 29.4861 18.6361C26.0491 19.78 22.5446 20.7101 18.9926 21.4209C16.9177 21.8037 15.0431 22.9032 13.6965 24.5275C12.3498 26.1518 11.6166 28.1976 11.6249 30.3076V54.3894C11.6263 65.2169 14.5221 75.8472 20.0126 85.1793C25.5031 94.5115 33.3885 102.206 42.8523 107.467L57.6031 115.666C58.9449 116.417 60.457 116.812 61.9948 116.812C63.5326 116.812 65.0446 116.417 66.3864 115.666L81.1476 107.467C90.6114 102.206 98.4968 94.5115 103.987 85.1793C109.478 75.8472 112.374 65.2169 112.375 54.3894V30.3076C112.383 28.1976 111.65 26.1518 110.303 24.5275C108.957 22.9032 107.082 21.8037 105.007 21.4209Z" fill="#81A3ED"/>
<path d="M56.8332 71.0417C56.3243 71.0429 55.8201 70.9431 55.3501 70.748C54.88 70.5529 54.4534 70.2663 54.0949 69.905L43.7616 59.5717C43.0771 58.8371 42.7044 57.8655 42.7222 56.8617C42.7399 55.8578 43.1466 54.8999 43.8565 54.19C44.5665 53.48 45.5243 53.0733 46.5282 53.0556C47.5321 53.0379 48.5037 53.4105 49.2382 54.095L56.8332 61.6849L74.7616 43.7617C75.4961 43.0772 76.4677 42.7046 77.4716 42.7223C78.4755 42.74 79.4333 43.1467 80.1433 43.8566C80.8532 44.5666 81.2599 45.5244 81.2776 46.5283C81.2954 47.5322 80.9227 48.5038 80.2382 49.2384L59.5716 69.905C59.2131 70.2663 58.7865 70.5529 58.3164 70.748C57.8463 70.9431 57.3422 71.0429 56.8332 71.0417Z" fill="white"/>
</svg>
